<?xml version="1.0" standalone="no"?>
<!DOCTYPE svg PUBLIC "-//W3C//DTD SVG 20010904//EN"
 "http://www.w3.org/TR/2001/REC-SVG-20010904/DTD/svg10.dtd">
<svg version="1.0" xmlns="http://www.w3.org/2000/svg"
 width="550.000000pt" height="550.000000pt" viewBox="0 0 550.000000 550.000000"
 preserveAspectRatio="xMidYMid meet">
<metadata>
Created by potrace 1.11, written by Peter Selinger 2001-2013
</metadata>
<g transform="translate(0.000000,550.000000) scale(0.100000,-0.100000)"
fill="#000000" stroke="none">
<path d="M2654 4905 c-360 -76 -604 -425 -549 -787 7 -46 16 -91 20 -101 7
-16 -30 -83 -519 -935 -39 -67 -76 -130 -81 -140 -6 -9 -37 -64 -70 -122 -33
-57 -64 -112 -70 -121 -5 -9 -25 -43 -43 -75 -18 -32 -41 -72 -51 -89 -10 -16
-71 -122 -135 -235 -65 -113 -121 -209 -126 -214 -5 -5 -29 -4 -57 4 -83 21
-96 22 -188 22 -267 0 -502 -147 -619 -387 -58 -119 -76 -202 -72 -335 14
-451 455 -771 889 -645 237 69 417 253 481 494 33 121 30 271 -7 386 -25 78
-80 179 -122 227 -40 45 -55 72 -46 82 8 10 150 253 213 366 14 25 94 164 178
310 84 146 162 281 173 300 11 19 62 109 115 200 52 91 104 180 114 198 10 18
53 93 95 165 42 73 88 154 103 180 15 27 29 50 32 50 3 1 20 -9 37 -23 132
-103 264 -151 426 -156 171 -5 318 41 445 138 l44 35 69 -121 c116 -205 376
-659 580 -1016 77 -135 151 -265 165 -290 69 -125 187 -329 208 -362 l23 -36
-47 -39 c-92 -74 -145 -140 -197 -243 -73 -145 -92 -326 -51 -481 24 -91 79
-205 122 -254 14 -16 33 -39 43 -50 61 -77 233 -177 351 -206 91 -22 262 -17
350 10 325 100 530 389 507 715 -8 102 -12 122 -42 202 -104 275 -371 456
-664 451 l-86 -2 -27 43 c-16 23 -28 45 -28 47 0 2 -22 42 -49 87 -26 46 -59
103 -73 128 -14 25 -117 205 -228 400 -112 195 -211 369 -220 385 -9 17 -99
174 -200 350 -101 176 -191 334 -200 350 -9 17 -40 71 -68 121 l-52 92 15 42
c26 75 36 186 24 286 -34 279 -243 517 -519 590 -81 21 -236 25 -316 9z"/>
</g>
</svg>
